<svg xmlns="http://www.w3.org/2000/svg" viewBox="0 0 64 64" width="64" height="64">
  <defs>
    <linearGradient id="bg" x1="0" y1="0" x2="1" y2="1">
      <stop offset="0%" stop-color="#10B981"/>
      <stop offset="100%" stop-color="#006C49"/>
    </linearGradient>
  </defs>
  <rect x="0" y="0" width="64" height="64" rx="14" fill="url(#bg)"/>
  <g fill="none" stroke="#FFFFFF" stroke-width="3.2" stroke-linecap="round" stroke-linejoin="round">
    <path d="M44 47a2 2 0 0 0 2-2v-10.7c0-.91.63-1.69 1.45-2.08a8 8 0 0 0-4.27-15.18 10 10 0 0 0-18.37 0 8 8 0 0 0-4.27 15.18c.82.39 1.46 1.17 1.46 2.08V45a2 2 0 0 0 2 2Z"/>
    <path d="M22 39h20"/>
  </g>
</svg>
